# xmcd
#
# Track frame offsets:
#	150
#	16842
#	33441
#	51604
#	69438
#	86774
#	108664
#	122703
#	139086
#	157392
#	173251
#	190039
#	204683
#
# Disc length: 2936 seconds
#
# Revision: 1
# Processed by: cddbd v1.5.2PL0 Copyright (c) Steve Scherf et al.
# Submitted via: EZCDAudioConverter 7.0.7.1
#
DISCID=b70b760d
DTITLE=Aaron Tippin - Now and Then
DYEAR=2006
DGENRE=Country
TTITLE0=Ready To Rock (In A Country Kinda Way)
TTITLE1=Could Not Stop Myself
TTITLE2=He Believed
TTITLE3=Whole Lotta Love On The Line
TTITLE4=Working Man's PH.D.
TTITLE5=The Call Of The Wild
TTITLE6=There Ain't Nothin' Wrong With The Radio
TTITLE7=That's As Close As I'll Get To Loving You
TTITLE8=I Got It Honest
TTITLE9=I Wouldn't Have It Any Other Way
TTITLE10=I Wonder How Far It Is Over You
TTITLE11=Honky-Tonk Superman
TTITLE12=My Blue Angel
EXTD=
EXTT0=
EXTT1=
EXTT2=
EXTT3=
EXTT4=
EXTT5=
EXTT6=
EXTT7=
EXTT8=
EXTT9=
EXTT10=
EXTT11=
EXTT12=
PLAYORDER=
